<svg xmlns="http://www.w3.org/2000/svg" width="16" height="13" viewBox="0 0 16 13" fill="none">
     <path fill-rule="evenodd" clip-rule="evenodd" d="M2.28841 2.82653C2.41335 2.5861 2.66467 2.42188 2.95435 2.42188H13.4544C13.744 2.42188 13.9953 2.5861 14.1203 2.82653L8.20435 6.77049L2.28841 2.82653ZM0.704394 3.1575C0.704244 3.16571 0.70423 3.17393 0.704349 3.18213V10.6719C0.704349 11.9145 1.71171 12.9219 2.95435 12.9219H13.4544C14.697 12.9219 15.7044 11.9145 15.7044 10.6719V3.18215M14.2044 4.57326V10.6719C14.2044 11.0861 13.8686 11.4219 13.4544 11.4219H2.95435C2.54014 11.4219 2.20435 11.0861 2.20435 10.6719V4.57326L7.78832 8.29591C8.04025 8.46386 8.36845 8.46386 8.62038 8.29591L14.2044 4.57326ZM15.7043 3.15748C15.6966 1.92146 14.6922 0.921875 13.4544 0.921875H2.95435C1.7165 0.921875 0.712128 1.92147 0.704394 3.1575" fill="#121212"/>
</svg>