<svg xmlns="http://www.w3.org/2000/svg" width="40" height="40" viewBox="0 0 40 40" fill="none">
    <path d="M28.5958 21.1583L29.871 21.92C29.9496 21.9669 30.0147 22.0333 30.06 22.1127C30.1052 22.1922 30.1289 22.2819 30.1289 22.3732C30.1289 22.4645 30.1052 22.5543 30.06 22.6337C30.0147 22.7132 29.9496 22.7796 29.871 22.8265L20.0209 28.7121L10.1708 22.8265C10.0922 22.7796 10.0271 22.7132 9.98184 22.6337C9.93663 22.5543 9.91286 22.4645 9.91286 22.3732V17.4606C9.91286 17.3693 9.93663 17.2796 9.98184 17.2001C10.0271 17.1207 10.0922 17.0543 10.1708 17.0074L19.4746 11.4482C19.6396 11.3495 19.8284 11.2974 20.0209 11.2974C20.2134 11.2974 20.4022 11.3495 20.5672 11.4482H20.5662L29.871 17.0074C29.9496 17.0543 30.0147 17.1207 30.06 17.2001C30.1052 17.2796 30.1289 17.3693 30.1289 17.4606C30.1289 17.5519 30.1052 17.6417 30.06 17.7211C30.0147 17.8006 29.9496 17.867 29.871 17.9139L20.0209 23.7995L11.7678 18.8681V21.3506L20.0209 26.2822L28.5958 21.1583Z" fill="black"/>
</svg>